<svg xmlns="http://www.w3.org/2000/svg" width="1200" height="630" viewBox="0 0 1200 630" role="img" aria-labelledby="title desc">
  <title id="title">AppImage Launcher Uninstaller</title>
  <desc id="desc">Miniatura temporal de Tecprog World con composición tecnológica de ingeniería.</desc>
  <defs>
    <linearGradient id="bg" x1="0" y1="0" x2="1" y2="1">
      <stop offset="0" stop-color="#061326"/>
      <stop offset="0.55" stop-color="#0b3d4a"/>
      <stop offset="1" stop-color="#082033"/>
    </linearGradient>
    <linearGradient id="panel" x1="0" y1="0" x2="1" y2="1">
      <stop offset="0" stop-color="#ffffff" stop-opacity="0.12"/>
      <stop offset="1" stop-color="#17d7ff" stop-opacity="0.18"/>
    </linearGradient>
  </defs>
  <rect width="1200" height="630" fill="url(#bg)"/>
  <path d="M0 453.59999999999997 C 300 352.8, 624 554.4, 1200 390.6 L 1200 630 L 0 630 Z" fill="#17d7ff" opacity="0.12"/>
  <g fill="none" stroke="#17d7ff" stroke-opacity="0.24" stroke-width="2">
    <path d="M96 138.6 H408.00000000000006 V289.8 H696"/>
    <path d="M816.0000000000001 94.5 h240 v151.2"/>
    <path d="M144 516.6 h288 v-113.39999999999999 h144"/>
  </g>
  <g transform="translate(600 302.4)">
    <rect x="-348" y="-144.9" width="696" height="289.8" rx="18" fill="url(#panel)" stroke="#17d7ff" stroke-opacity="0.42"/>
    <circle cx="-204.00000000000003" cy="-12.6" r="72.45" fill="#ffffff" opacity="0.95"/>
    <path d="M-264 25.2 L-168.00000000000003 -56.699999999999996 L-72 25.2 Z" fill="#d5a12f"/>
    <rect x="24" y="-69.3" width="216" height="22.05" rx="6" fill="#17d7ff"/>
    <rect x="24" y="-28.349999999999998" width="264" height="16.38" rx="5" fill="#ffffff" opacity="0.88"/>
    <rect x="24" y="9.45" width="180" height="16.38" rx="5" fill="#d5a12f"/>
  </g>
  <text x="96" y="100.8" fill="#d5a12f" font-family="Inter, Arial, sans-serif" font-size="25" font-weight="800">Software open-source / Linux</text>
  <text x="96" y="529.1999999999999" fill="#ffffff" font-family="Inter, Arial, sans-serif" font-size="58" font-weight="900">AppImage Launcher Uninstaller</text>
</svg>
